<?xml version="1.0" encoding="UTF-8"?>
<svg version="1.1" xmlns="http://www.w3.org/2000/svg" width="512" height="512">
<path d="M0 0 C1.30247364 -0.00397441 2.60494728 -0.00794881 3.94688982 -0.01204365 C7.53256236 -0.02255492 11.11798286 -0.01455133 14.70364416 -0.00329316 C18.58151814 0.00559439 22.45936075 -0.00290744 26.3372345 -0.00915527 C33.91976663 -0.01861648 41.50220324 -0.01206833 49.08472825 0.00010767 C57.91407909 0.01375628 66.74340741 0.01208749 75.57276612 0.00997434 C91.31956203 0.0067888 107.06631261 0.01843044 122.81309509 0.03804016 C138.09956745 0.05707166 153.38598674 0.06411958 168.67247009 0.05854797 C185.32560933 0.05249619 201.97872528 0.05265396 218.63186258 0.06403381 C220.40557031 0.06524111 222.17927804 0.06644709 223.95298576 0.06765175 C224.82568243 0.06825529 225.6983791 0.06885883 226.59752112 0.06948065 C232.75627105 0.07336485 238.91501232 0.07296436 245.07376289 0.0710659 C252.56905479 0.06894849 260.06430015 0.07413429 267.5595789 0.08867946 C271.38565228 0.09594327 275.21165773 0.0999835 279.03773689 0.0954361 C283.17691827 0.09063595 287.31591228 0.10123561 291.45507812 0.11352539 C292.67517973 0.10974607 293.89528134 0.10596674 295.15235573 0.10207289 C296.80450794 0.11082118 296.80450794 0.11082118 298.49003696 0.11974621 C299.92440974 0.12104637 299.92440974 0.12104637 301.38775975 0.12237281 C303.65611267 0.3742218 303.65611267 0.3742218 305.65611267 2.3742218 C305.910263 5.10703415 305.910263 5.10703415 305.91617489 8.67147732 C305.91998056 9.32797521 305.92378623 9.9844731 305.92770723 10.66086486 C305.93809354 12.88216269 305.93410404 15.1032083 305.93026733 17.32452393 C305.93471593 18.92453706 305.94002871 20.52454799 305.94613606 22.12455565 C305.96037184 26.53807259 305.9619783 30.9515193 305.96153915 35.36505592 C305.96318244 40.11837539 305.97623969 44.87166551 305.98773193 49.62496948 C306.01061796 60.0255468 306.01850623 70.42610375 306.02355838 80.82670283 C306.02681085 87.31573145 306.03333053 93.80475412 306.04055977 100.29377937 C306.06012943 118.24578505 306.07653181 136.19778518 306.0794363 154.14980221 C306.07962387 155.29941045 306.07981144 156.44901868 306.0800047 157.63346354 C306.08037096 159.96418321 306.08073465 162.29490289 306.08109581 164.62562256 C306.08127862 165.78265787 306.08146143 166.93969318 306.08164978 168.13179016 C306.0819206 169.86945106 306.0819206 169.86945106 306.0821969 171.64221621 C306.08574074 190.42537313 306.11277461 209.20841555 306.15014767 227.99153274 C306.18817544 247.25719812 306.20759337 266.52280661 306.20789582 285.78851038 C306.20848159 296.61311216 306.21705087 307.43757734 306.24589348 318.26214409 C306.27033341 327.47702468 306.27774041 336.69171886 306.26264595 345.90662306 C306.25544693 350.61183916 306.25646232 355.31668661 306.27905655 360.02186203 C306.29952017 364.32439347 306.29716584 368.62626991 306.27618171 372.92879326 C306.27266243 374.49001956 306.27769882 376.05129194 306.29188614 377.61245774 C306.30986539 379.72615514 306.29739652 381.83750273 306.27693844 383.95112514 C306.27775289 385.12755374 306.27856735 386.30398234 306.27940649 387.51606029 C305.65611267 390.3742218 305.65611267 390.3742218 303.28064114 392.23880011 C300.56490959 393.41367802 298.27178706 393.93457633 295.34361267 394.3117218 C286.54851906 395.77364085 279.5997705 399.64315631 273.65611267 406.3742218 C267.55290307 416.31459783 265.83330483 426.9519711 268.30455017 438.37031555 C271.64057099 447.50873156 278.05617146 454.02094578 286.65611267 458.3742218 C291.36433084 460.36213614 296.23945812 461.04271182 301.26548767 461.8117218 C303.65611267 462.3742218 303.65611267 462.3742218 305.65611267 464.3742218 C305.91490173 466.95625305 305.91490173 466.95625305 305.92173767 470.1867218 C305.9243158 471.34429993 305.92689392 472.50187805 305.92955017 473.6945343 C305.9218158 474.90883118 305.91408142 476.12312805 305.90611267 477.3742218 C305.91384705 478.58851868 305.92158142 479.80281555 305.92955017 481.0539093 C305.92568298 482.79027649 305.92568298 482.79027649 305.92173767 484.5617218 C305.91948181 485.62777649 305.91722595 486.69383118 305.91490173 487.79219055 C305.65611267 490.3742218 305.65611267 490.3742218 303.65611267 492.3742218 C301.74058807 492.62261879 301.74058807 492.62261879 299.34950066 492.62031746 C298.43983571 492.62429956 297.53017076 492.62828165 296.59294021 492.63238442 C295.58711934 492.62655874 294.58129846 492.62073305 293.54499817 492.61473083 C291.94984947 492.61729411 291.94984947 492.61729411 290.32247555 492.61990917 C286.73554137 492.62322074 283.14879153 492.61217295 279.56187439 492.60127258 C277.00003565 492.60070883 274.43819658 492.60102433 271.87635803 492.60215759 C266.34878542 492.602614 260.82127288 492.59691703 255.29371262 492.58568192 C247.30173853 492.56944827 239.3097873 492.5642211 231.31779851 492.56170593 C218.35226921 492.55732547 205.38676504 492.54400685 192.42124939 492.52510071 C179.82424546 492.50675099 167.22724835 492.49259005 154.63023376 492.48408508 C153.85414036 492.48355964 153.07804696 492.48303419 152.27843557 492.48249282 C148.38511836 492.4798828 144.4918011 492.47735537 140.5984838 492.47486901 C108.28434183 492.45412557 75.97023073 492.4188905 43.65611267 492.3742218 C43.6793158 493.65039368 43.70251892 494.92656555 43.72642517 496.2414093 C43.74518096 497.9106743 43.76338136 499.57994561 43.78111267 501.2492218 C43.80624939 502.51185852 43.80624939 502.51185852 43.83189392 503.80000305 C43.83833923 504.60566711 43.84478455 505.41133118 43.85142517 506.2414093 C43.8618988 506.98503723 43.87237244 507.72866516 43.88316345 508.49482727 C43.65611267 510.3742218 43.65611267 510.3742218 41.65611267 512.3742218 C38.55845642 512.9992218 38.55845642 512.9992218 34.65611267 512.3742218 C31.47242711 510.05499061 28.88411404 507.26164506 26.21861267 504.3742218 C25.4870697 503.6110968 24.75552673 502.8479718 24.0018158 502.0617218 C22.20308897 500.18070029 20.42271249 498.2853645 18.65611267 496.3742218 C13.41854139 500.72264378 8.76872534 505.35906558 4.18345642 510.3976593 C1.65611267 512.3742218 1.65611267 512.3742218 -1.46498108 512.9132843 C-4.34388733 512.3742218 -4.34388733 512.3742218 -6.20716858 510.8898468 C-7.81803381 507.32490794 -7.66325994 503.9519088 -7.53138733 500.1242218 C-7.51785217 499.37914368 -7.50431702 498.63406555 -7.4903717 497.8664093 C-7.45515936 496.03536764 -7.40135583 494.20470011 -7.34388733 492.3742218 C-7.90334045 492.36004211 -8.46279358 492.34586243 -9.03919983 492.33125305 C-25.63018562 491.34432946 -39.50059548 483.19377531 -50.76966858 471.37812805 C-63.04910681 457.04901121 -67.12703257 441.36732245 -66.97880554 422.90376282 C-66.98458303 421.30917508 -66.99253495 419.71459402 -67.00244176 418.12002659 C-67.02311539 413.78587292 -67.01308992 409.45227699 -66.99751067 405.11812258 C-66.98612032 400.42544759 -67.00369768 395.7328634 -67.01741028 391.04020691 C-67.03956577 381.86611006 -67.03487591 372.69221852 -67.02034707 363.51811385 C-67.00902444 356.05770807 -67.00753698 348.59735955 -67.01296616 341.13694763 C-67.01373232 340.0724456 -67.01449849 339.00794356 -67.01528787 337.91118389 C-67.0168866 335.74821812 -67.01850767 333.58525237 -67.02015083 331.42228663 C-67.03438581 311.17185638 -67.01805098 290.92153956 -66.99114899 270.67112792 C-66.96881229 253.32047483 -66.97269305 235.96998905 -66.9957428 218.61933899 C-67.02254062 198.43807569 -67.03301272 178.25691165 -67.01768148 158.07563305 C-67.01608885 155.92092071 -67.01451699 153.76620835 -67.01296616 151.61149597 C-67.01219478 150.55152061 -67.0114234 149.49154524 -67.01062865 148.39944941 C-67.00632359 140.95377015 -67.01357237 133.50815419 -67.02536392 126.06248474 C-67.03943177 116.98040745 -67.03549922 107.89854604 -67.0089602 98.81649327 C-66.9958795 94.18857022 -66.99057077 89.56100625 -67.00720596 84.9330864 C-67.02223871 80.68653405 -67.01370102 76.44066947 -66.9873182 72.19417846 C-66.9817891 70.66814401 -66.98444632 69.14204995 -66.99669714 67.61605465 C-67.1461018 47.43863657 -60.52180277 31.82056594 -46.34388733 17.3742218 C-45.72900452 16.7348468 -45.1141217 16.0954718 -44.48060608 15.4367218 C-32.36455563 3.81361559 -16.29382444 -0.10012732 0 0 Z " fill="#435B30" transform="translate(136.34388732910156,-0.3742218017578125)"/>
<path d="M0 0 C1.30247364 -0.00397441 2.60494728 -0.00794881 3.94688982 -0.01204365 C7.53256236 -0.02255492 11.11798286 -0.01455133 14.70364416 -0.00329316 C18.58151814 0.00559439 22.45936075 -0.00290744 26.3372345 -0.00915527 C33.91976663 -0.01861648 41.50220324 -0.01206833 49.08472825 0.00010767 C57.91407909 0.01375628 66.74340741 0.01208749 75.57276612 0.00997434 C91.31956203 0.0067888 107.06631261 0.01843044 122.81309509 0.03804016 C138.09956745 0.05707166 153.38598674 0.06411958 168.67247009 0.05854797 C185.32560933 0.05249619 201.97872528 0.05265396 218.63186258 0.06403381 C220.40557031 0.06524111 222.17927804 0.06644709 223.95298576 0.06765175 C224.82568243 0.06825529 225.6983791 0.06885883 226.59752112 0.06948065 C232.75627105 0.07336485 238.91501232 0.07296436 245.07376289 0.0710659 C252.56905479 0.06894849 260.06430015 0.07413429 267.5595789 0.08867946 C271.38565228 0.09594327 275.21165773 0.0999835 279.03773689 0.0954361 C283.17691827 0.09063595 287.31591228 0.10123561 291.45507812 0.11352539 C292.67517973 0.10974607 293.89528134 0.10596674 295.15235573 0.10207289 C296.80450794 0.11082118 296.80450794 0.11082118 298.49003696 0.11974621 C299.92440974 0.12104637 299.92440974 0.12104637 301.38775975 0.12237281 C303.65611267 0.3742218 303.65611267 0.3742218 305.65611267 2.3742218 C305.910263 5.10703415 305.910263 5.10703415 305.91617489 8.67147732 C305.91998056 9.32797521 305.92378623 9.9844731 305.92770723 10.66086486 C305.93809354 12.88216269 305.93410404 15.1032083 305.93026733 17.32452393 C305.93471593 18.92453706 305.94002871 20.52454799 305.94613606 22.12455565 C305.96037184 26.53807259 305.9619783 30.9515193 305.96153915 35.36505592 C305.96318244 40.11837539 305.97623969 44.87166551 305.98773193 49.62496948 C306.01061796 60.0255468 306.01850623 70.42610375 306.02355838 80.82670283 C306.02681085 87.31573145 306.03333053 93.80475412 306.04055977 100.29377937 C306.06012943 118.24578505 306.07653181 136.19778518 306.0794363 154.14980221 C306.07962387 155.29941045 306.07981144 156.44901868 306.0800047 157.63346354 C306.08037096 159.96418321 306.08073465 162.29490289 306.08109581 164.62562256 C306.08127862 165.78265787 306.08146143 166.93969318 306.08164978 168.13179016 C306.0819206 169.86945106 306.0819206 169.86945106 306.0821969 171.64221621 C306.08574074 190.42537313 306.11277461 209.20841555 306.15014767 227.99153274 C306.18817544 247.25719812 306.20759337 266.52280661 306.20789582 285.78851038 C306.20848159 296.61311216 306.21705087 307.43757734 306.24589348 318.26214409 C306.27033341 327.47702468 306.27774041 336.69171886 306.26264595 345.90662306 C306.25544693 350.61183916 306.25646232 355.31668661 306.27905655 360.02186203 C306.29952017 364.32439347 306.29716584 368.62626991 306.27618171 372.92879326 C306.27266243 374.49001956 306.27769882 376.05129194 306.29188614 377.61245774 C306.30986539 379.72615514 306.29739652 381.83750273 306.27693844 383.95112514 C306.27775289 385.12755374 306.27856735 386.30398234 306.27940649 387.51606029 C305.65611267 390.3742218 305.65611267 390.3742218 303.28064114 392.23880011 C300.56490959 393.41367802 298.27178706 393.93457633 295.34361267 394.3117218 C286.54851906 395.77364085 279.5997705 399.64315631 273.65611267 406.3742218 C267.55290307 416.31459783 265.83330483 426.9519711 268.30455017 438.37031555 C271.64057099 447.50873156 278.05617146 454.02094578 286.65611267 458.3742218 C291.36433084 460.36213614 296.23945812 461.04271182 301.26548767 461.8117218 C303.65611267 462.3742218 303.65611267 462.3742218 305.65611267 464.3742218 C305.91490173 466.95625305 305.91490173 466.95625305 305.92173767 470.1867218 C305.9243158 471.34429993 305.92689392 472.50187805 305.92955017 473.6945343 C305.9218158 474.90883118 305.91408142 476.12312805 305.90611267 477.3742218 C305.91384705 478.58851868 305.92158142 479.80281555 305.92955017 481.0539093 C305.92568298 482.79027649 305.92568298 482.79027649 305.92173767 484.5617218 C305.91948181 485.62777649 305.91722595 486.69383118 305.91490173 487.79219055 C305.65611267 490.3742218 305.65611267 490.3742218 303.65611267 492.3742218 C301.74058807 492.62261879 301.74058807 492.62261879 299.34950066 492.62031746 C298.43983571 492.62429956 297.53017076 492.62828165 296.59294021 492.63238442 C295.58711934 492.62655874 294.58129846 492.62073305 293.54499817 492.61473083 C291.94984947 492.61729411 291.94984947 492.61729411 290.32247555 492.61990917 C286.73554137 492.62322074 283.14879153 492.61217295 279.56187439 492.60127258 C277.00003565 492.60070883 274.43819658 492.60102433 271.87635803 492.60215759 C266.34878542 492.602614 260.82127288 492.59691703 255.29371262 492.58568192 C247.30173853 492.56944827 239.3097873 492.5642211 231.31779851 492.56170593 C218.35226921 492.55732547 205.38676504 492.54400685 192.42124939 492.52510071 C179.82424546 492.50675099 167.22724835 492.49259005 154.63023376 492.48408508 C153.85414036 492.48355964 153.07804696 492.48303419 152.27843557 492.48249282 C148.38511836 492.4798828 144.4918011 492.47735537 140.5984838 492.47486901 C108.28434183 492.45412557 75.97023073 492.4188905 43.65611267 492.3742218 C43.6793158 493.65039368 43.70251892 494.92656555 43.72642517 496.2414093 C43.74518096 497.9106743 43.76338136 499.57994561 43.78111267 501.2492218 C43.80624939 502.51185852 43.80624939 502.51185852 43.83189392 503.80000305 C43.83833923 504.60566711 43.84478455 505.41133118 43.85142517 506.2414093 C43.8618988 506.98503723 43.87237244 507.72866516 43.88316345 508.49482727 C43.65611267 510.3742218 43.65611267 510.3742218 41.65611267 512.3742218 C38.55845642 512.9992218 38.55845642 512.9992218 34.65611267 512.3742218 C31.47242711 510.05499061 28.88411404 507.26164506 26.21861267 504.3742218 C25.4870697 503.6110968 24.75552673 502.8479718 24.0018158 502.0617218 C22.20308897 500.18070029 20.42271249 498.2853645 18.65611267 496.3742218 C13.41854139 500.72264378 8.76872534 505.35906558 4.18345642 510.3976593 C1.65611267 512.3742218 1.65611267 512.3742218 -1.46498108 512.9132843 C-4.34388733 512.3742218 -4.34388733 512.3742218 -6.20716858 510.8898468 C-7.81803381 507.32490794 -7.66325994 503.9519088 -7.53138733 500.1242218 C-7.51785217 499.37914368 -7.50431702 498.63406555 -7.4903717 497.8664093 C-7.45515936 496.03536764 -7.40135583 494.20470011 -7.34388733 492.3742218 C-7.90334045 492.36004211 -8.46279358 492.34586243 -9.03919983 492.33125305 C-25.63018562 491.34432946 -39.50059548 483.19377531 -50.76966858 471.37812805 C-63.04910681 457.04901121 -67.12703257 441.36732245 -66.97880554 422.90376282 C-66.98458303 421.30917508 -66.99253495 419.71459402 -67.00244176 418.12002659 C-67.02311539 413.78587292 -67.01308992 409.45227699 -66.99751067 405.11812258 C-66.98612032 400.42544759 -67.00369768 395.7328634 -67.01741028 391.04020691 C-67.03956577 381.86611006 -67.03487591 372.69221852 -67.02034707 363.51811385 C-67.00902444 356.05770807 -67.00753698 348.59735955 -67.01296616 341.13694763 C-67.01373232 340.0724456 -67.01449849 339.00794356 -67.01528787 337.91118389 C-67.0168866 335.74821812 -67.01850767 333.58525237 -67.02015083 331.42228663 C-67.03438581 311.17185638 -67.01805098 290.92153956 -66.99114899 270.67112792 C-66.96881229 253.32047483 -66.97269305 235.96998905 -66.9957428 218.61933899 C-67.02254062 198.43807569 -67.03301272 178.25691165 -67.01768148 158.07563305 C-67.01608885 155.92092071 -67.01451699 153.76620835 -67.01296616 151.61149597 C-67.01219478 150.55152061 -67.0114234 149.49154524 -67.01062865 148.39944941 C-67.00632359 140.95377015 -67.01357237 133.50815419 -67.02536392 126.06248474 C-67.03943177 116.98040745 -67.03549922 107.89854604 -67.0089602 98.81649327 C-66.9958795 94.18857022 -66.99057077 89.56100625 -67.00720596 84.9330864 C-67.02223871 80.68653405 -67.01370102 76.44066947 -66.9873182 72.19417846 C-66.9817891 70.66814401 -66.98444632 69.14204995 -66.99669714 67.61605465 C-67.1461018 47.43863657 -60.52180277 31.82056594 -46.34388733 17.3742218 C-45.72900452 16.7348468 -45.1141217 16.0954718 -44.48060608 15.4367218 C-32.36455563 3.81361559 -16.29382444 -0.10012732 0 0 Z M-45.34388733 31.3742218 C-54.0014088 43.50472213 -56.96017407 55.95499292 -56.8249054 70.69338989 C-56.82665414 72.09054571 -56.83016459 73.48770021 -56.83526206 74.88484782 C-56.84412658 78.6865772 -56.8283175 82.48784834 -56.80814981 86.28951943 C-56.79076482 90.40316595 -56.79672927 94.51678969 -56.79975891 98.63046265 C-56.80184934 105.74521751 -56.78937268 112.85982486 -56.76680756 119.97454262 C-56.73420421 130.2610171 -56.72387204 140.54742075 -56.71885559 150.8339413 C-56.71011597 167.52587529 -56.68353668 184.21773079 -56.64564514 200.90962219 C-56.60889047 217.11762603 -56.58059565 233.32560849 -56.56361389 249.53364563 C-56.562563 250.53386074 -56.5615121 251.53407585 -56.56042936 252.5646005 C-56.55520895 257.58273006 -56.55015418 262.60085978 -56.54518175 267.61898959 C-56.50376126 309.20412157 -56.43334927 350.78916718 -56.34388733 392.3742218 C-55.73142151 391.60312073 -55.11895569 390.83201965 -54.4879303 390.03755188 C-41.63934434 374.07703898 -26.22618267 366.35068087 -6.34388733 362.3742218 C-6.34388733 251.1642218 -6.34388733 139.9542218 -6.34388733 25.3742218 C-3.04388733 25.3742218 0.25611267 25.3742218 3.65611267 25.3742218 C3.65611267 136.5842218 3.65611267 247.7942218 3.65611267 362.3742218 C100.01611267 362.3742218 196.37611267 362.3742218 295.65611267 362.3742218 C295.65611267 246.2142218 295.65611267 130.0542218 295.65611267 10.3742218 C220.32330017 10.2504718 220.32330017 10.2504718 143.46861267 10.1242218 C127.61161316 10.08780579 111.75461365 10.05138977 95.417099 10.01387024 C81.20154745 10.0004924 81.20154745 10.0004924 66.98599243 9.9924469 C60.65483648 9.98872071 54.32382213 9.97406484 47.9927063 9.95191956 C40.68523326 9.92639706 33.37789578 9.91489226 26.07037787 9.920442 C22.33493253 9.92284418 18.59978987 9.9191259 14.86440051 9.89736128 C10.85485546 9.87414232 6.84596217 9.88228733 2.83636475 9.89320374 C1.68393626 9.88155308 0.53150778 9.86990242 -0.65584278 9.85789871 C-18.47698409 9.98784427 -34.01010457 17.66368391 -45.34388733 31.3742218 Z " fill="#4D2419" transform="translate(136.34388732910156,-0.3742218017578125)"/>
<path d="M0 0 C1.25766174 -0.00342407 2.51532349 -0.00684814 3.81109619 -0.01037598 C7.26935872 -0.01925604 10.72711638 -0.0034224 14.18531491 0.01672715 C17.98402977 0.03432014 21.78272504 0.02834045 25.58146954 0.02545547 C32.93987596 0.02333743 40.29808554 0.04172238 47.65644152 0.06746079 C56.1761873 0.09636406 64.69581639 0.09944541 73.21562195 0.1026001 C95.6878616 0.12356525 118.16005776 0.17941009 140.63224792 0.23101807 C215.96506042 0.35476807 215.96506042 0.35476807 292.81974792 0.48101807 C292.81974792 116.64101807 292.81974792 232.80101807 292.81974792 352.48101807 C196.45974792 352.48101807 100.09974792 352.48101807 0.81974792 352.48101807 C0.81974792 241.27101807 0.81974792 130.06101807 0.81974792 15.48101807 C-2.48025208 15.48101807 -5.78025208 15.48101807 -9.18025208 15.48101807 C-9.18025208 126.69101807 -9.18025208 237.90101807 -9.18025208 352.48101807 C-15.45025208 354.13101807 -21.72025208 355.78101807 -28.18025208 357.48101807 C-40.20176019 363.0130395 -48.86295155 370.29232492 -57.18025208 380.48101807 C-57.84025208 381.14101807 -58.50025208 381.80101807 -59.18025208 382.48101807 C-59.27186113 339.89790945 -59.34231798 297.31481222 -59.38451339 254.73162453 C-59.38951606 249.70123016 -59.39469336 244.67083598 -59.39997864 239.64044189 C-59.40102788 238.63900537 -59.40207712 237.63756884 -59.40315816 236.60578575 C-59.42055066 220.40295606 -59.45208199 204.20018328 -59.48886326 187.99738733 C-59.5263048 171.36467558 -59.54849472 154.73199359 -59.55660605 138.09924144 C-59.56208716 127.84071214 -59.57938202 117.58234376 -59.61191794 107.32386401 C-59.63310551 100.28372027 -59.63944253 93.2436594 -59.63425758 86.20348612 C-59.6317024 82.14515633 -59.63554499 78.08710721 -59.65707397 74.02882767 C-59.67668041 70.30556517 -59.677432 66.58276946 -59.66384766 62.85948452 C-59.66138344 60.89070821 -59.67850867 58.92193658 -59.69657731 56.95324165 C-59.59237162 41.30046619 -54.25367073 27.60307368 -43.49275208 16.16851807 C-31.17017302 4.57189155 -16.71735187 -0.16900671 0 0 Z M12.06115663 11.66386163 C10.34854482 14.17075848 10.44371731 15.90625705 10.4422245 18.93304443 C10.43440126 20.07275444 10.42657802 21.21246445 10.41851771 22.38671112 C10.42520987 23.64437538 10.43190204 24.90203964 10.438797 26.19781494 C10.43534216 27.54295482 10.43057877 28.88809187 10.42461526 30.23322296 C10.41205153 33.93764273 10.41829987 37.64183167 10.42757392 41.34625244 C10.43434219 45.33813061 10.42389426 49.32996819 10.41563416 53.32183838 C10.4022708 61.14509385 10.40518611 68.96826313 10.41387208 76.79152203 C10.42063801 83.14774472 10.42157008 89.5039432 10.41830063 95.86016846 C10.41784093 96.76366358 10.41738123 97.66715871 10.4169076 98.59803247 C10.41594846 100.43327269 10.41497582 102.26851289 10.41398983 104.10375309 C10.40542831 121.32638976 10.41528199 138.54897858 10.43139093 155.7716074 C10.4447948 170.56018493 10.44246692 185.34869182 10.42863464 200.13726807 C10.41259226 217.29686395 10.40625236 234.45641787 10.41547143 251.6160202 C10.41642712 253.44463602 10.41737023 255.27325184 10.41830063 257.10186768 C10.41876346 258.00166052 10.41922628 258.90145337 10.41970313 259.82851267 C10.42229705 266.17956961 10.41791338 272.5306 10.41086197 278.88165283 C10.40246165 286.61793766 10.40469606 294.35413114 10.4207042 302.09040546 C10.42860679 306.04011884 10.43164489 309.98967972 10.42175674 313.93939209 C10.41285019 317.55156202 10.41767533 321.16343739 10.4336894 324.77558041 C10.43865473 326.70882885 10.42880462 328.64209756 10.41851771 330.57532501 C10.42634095 331.71503502 10.43416419 332.85474503 10.4422245 334.0289917 C10.44271156 335.01653694 10.44319862 336.00408218 10.44370043 337.02155304 C10.64126955 339.50118908 10.64126955 339.50118908 12.06115663 341.2981745 C14.30210195 342.80545352 15.64184093 342.85691275 18.33473206 342.85854149 C19.26543833 342.86636473 20.1961446 342.87418797 21.15505409 342.88224828 C22.69136514 342.87221003 22.69136514 342.87221003 24.25871277 342.86196899 C25.34538427 342.86664897 26.43205578 342.87132894 27.55165672 342.87615073 C31.21145525 342.88816534 34.87088378 342.87861807 38.53068542 342.86920166 C41.14691894 342.87326448 43.76315074 342.87860472 46.37937927 342.88513184 C52.75883292 342.89849072 59.13818085 342.89558189 65.51763868 342.88689391 C70.70109394 342.88012622 75.8845195 342.87919667 81.06797791 342.88246536 C82.17343808 342.88315491 82.17343808 342.88315491 83.30123079 342.88385839 C84.798251 342.88481754 86.29527121 342.88579018 87.7922914 342.88677616 C101.83882487 342.89533637 115.88529965 342.88548606 129.93182349 342.86937506 C141.99149957 342.8559713 154.05108903 342.85829922 166.11076355 342.87213135 C180.10609934 342.88817605 194.10138367 342.89451234 208.09672737 342.88529456 C209.58832422 342.88433888 211.07992108 342.88339577 212.57151794 342.88246536 C213.67243729 342.88177112 213.67243729 342.88177112 214.79559743 342.88106286 C219.97445685 342.87846963 225.15328369 342.88285111 230.33213806 342.88990402 C237.2989934 342.89918314 244.26568196 342.89260252 251.23252106 342.87522125 C253.79522681 342.87124156 256.3579463 342.8724156 258.92064667 342.87900925 C262.40754778 342.8871562 265.89391629 342.8769859 269.38078308 342.86196899 C270.91709413 342.87200724 270.91709413 342.87200724 272.48444176 342.88224828 C273.41514803 342.87442504 274.3458543 342.8666018 275.30476379 342.85854149 C276.11004328 342.85805443 276.91532276 342.85756737 277.74500465 342.85706556 C279.87571389 342.61415471 279.87571389 342.61415471 281.57833922 341.2981745 C283.29095103 338.79127765 283.19577854 337.05577908 283.19727135 334.0289917 C283.20509459 332.88928169 283.21291783 331.74957169 283.22097814 330.57532501 C283.21428598 329.31766075 283.20759381 328.05999649 283.20069885 326.76422119 C283.20415369 325.41908131 283.20891708 324.07394427 283.21488059 322.72881317 C283.22744432 319.02439341 283.22119598 315.32020446 283.21192193 311.61578369 C283.20515366 307.62390552 283.21560159 303.63206794 283.22386169 299.64019775 C283.23722505 291.81694229 283.23430974 283.993773 283.22562377 276.17051411 C283.21885784 269.81429141 283.21792577 263.45809293 283.22119522 257.10186768 C283.22165492 256.19837255 283.22211462 255.29487742 283.22258825 254.36400366 C283.22354739 252.52876345 283.22452003 250.69352324 283.22550602 248.85828304 C283.23406754 231.63564638 283.22421386 214.41305756 283.20810492 197.19042873 C283.19470105 182.40185121 283.19702893 167.61334432 283.21086121 152.82476807 C283.22690359 135.66517218 283.23324349 118.50561827 283.22402442 101.34601593 C283.22306873 99.51740011 283.22212562 97.68878429 283.22119522 95.86016846 C283.22050098 94.51047919 283.22050098 94.51047919 283.21979272 93.13352346 C283.21719879 86.78246652 283.22158247 80.43143613 283.22863388 74.0803833 C283.2370342 66.34409847 283.23479979 58.60790499 283.21879165 50.87163067 C283.21088906 46.92191729 283.20785096 42.97235641 283.21773911 39.02264404 C283.22664566 35.41047411 283.22182052 31.79859875 283.20580645 28.18645573 C283.20084112 26.25320729 283.21069123 24.31993857 283.22097814 22.38671112 C283.2131549 21.24700111 283.20533166 20.10729111 283.19727135 18.93304443 C283.19678429 17.94549919 283.19629723 16.95795395 283.19579542 15.94048309 C282.9982263 13.46084705 282.9982263 13.46084705 281.57833922 11.66386163 C279.33739389 10.15658261 277.99765492 10.10512338 275.30476379 10.10349464 C273.90870439 10.09175978 273.90870439 10.09175978 272.48444176 10.07978785 C270.94813071 10.0898261 270.94813071 10.0898261 269.38078308 10.10006714 C268.29411158 10.09538717 267.20744007 10.09070719 266.08783913 10.08588541 C262.4280406 10.07387079 258.76861207 10.08341806 255.10881042 10.09283447 C252.49257691 10.08877165 249.87634511 10.08343141 247.26011658 10.0769043 C240.88066293 10.06354541 234.501315 10.06645425 228.12185717 10.07514222 C222.93840191 10.08190991 217.75497635 10.08283946 212.57151794 10.07957077 C211.83454449 10.07911107 211.09757104 10.07865137 210.33826506 10.07817774 C208.84124485 10.07721859 207.34422464 10.07624595 205.84720445 10.07525997 C191.80067098 10.06669976 177.7541962 10.07655007 163.70767236 10.09266107 C151.64799628 10.10606483 139.58840682 10.10373692 127.5287323 10.08990479 C113.53339651 10.07386008 99.53811218 10.0675238 85.54276848 10.07674158 C84.05117163 10.07769725 82.55957477 10.07864036 81.06797791 10.07957077 C79.96705856 10.08026501 79.96705856 10.08026501 78.84389842 10.08097328 C73.665039 10.0835665 68.48621216 10.07918502 63.30735779 10.07213211 C56.34050245 10.06285299 49.37381389 10.06943361 42.40697479 10.08681488 C39.84426903 10.09079457 37.28154955 10.08962053 34.71884918 10.08302689 C31.23194807 10.07487994 27.74557956 10.08505024 24.25871277 10.10006714 C23.23450541 10.09337497 22.21029804 10.08668281 21.15505409 10.07978785 C20.22434782 10.08761109 19.29364155 10.09543433 18.33473206 10.10349464 C17.52945257 10.1039817 16.72417309 10.10446876 15.8944912 10.10497057 C13.76378196 10.34788142 13.76378196 10.34788142 12.06115663 11.66386163 Z " fill="#47B75B" transform="translate(139.1802520751953,9.51898193359375)"/>
<path d="M0 0 C10.51671042 1.63593273 20.62819721 3.79682377 30 9 C30.8353125 9.44085938 31.670625 9.88171875 32.53125 10.3359375 C50.99267672 20.64926539 63.12975116 38.938143 68.90234375 58.98828125 C74.78014958 81.77014181 71.06186258 105.91800338 59.6875 126.3125 C49.7144091 142.36939362 35.44671464 155.56660247 16.84082031 160.58203125 C1.06990661 164.23703292 -14.58749771 162.75749428 -29 155 C-32.84809417 152.53991288 -36.43890233 149.85658375 -40 147 C-40.72058594 146.44441406 -41.44117188 145.88882813 -42.18359375 145.31640625 C-54.18496708 135.56090395 -63.36768186 119.04817517 -67 104 C-67.30357422 102.79537109 -67.30357422 102.79537109 -67.61328125 101.56640625 C-72.46256321 78.30964584 -68.58630674 54.16116976 -55.80224609 34.12255859 C-44.99192439 18.29177735 -29.6849218 6.32815806 -10.6472168 2.70996094 C-8.51615254 2.3266472 -6.38189935 1.96903402 -4.24609375 1.61328125 C-1.15771843 1.34556655 -1.15771843 1.34556655 0 0 Z " fill="#FDC95C" transform="translate(285,104)"/>
<path d="M0 0 C1.15193891 -0.0034177 2.30387782 -0.0068354 3.49072397 -0.01035666 C7.32939056 -0.01691628 11.16734934 0.00501001 15.00595093 0.0269165 C17.76601602 0.03027683 20.52606756 0.02758621 23.28613281 0.02514648 C29.21740597 0.02305509 35.1485023 0.03554186 41.07973099 0.05809784 C49.6551261 0.09068804 58.23043623 0.10103201 66.80588655 0.10604981 C80.72093036 0.11479148 94.63588006 0.14137637 108.5508728 0.17926025 C122.06323782 0.21600959 135.57557723 0.24430702 149.08798218 0.2612915 C150.33857947 0.26286784 150.33857947 0.26286784 151.61444135 0.26447603 C155.7972748 0.26969641 159.98010842 0.27475118 164.16294217 0.27972364 C198.83121919 0.32115055 233.4993869 0.39156816 268.16757202 0.48101807 C267.76490112 0.9442749 267.36223022 1.40753174 266.94735718 1.88482666 C266.4141687 2.5018042 265.88098022 3.11878174 265.33163452 3.75445557 C264.80521362 4.3620874 264.27879272 4.96971924 263.73641968 5.59576416 C255.40244909 15.61053554 252.01236671 27.53538393 253.16757202 40.48101807 C254.26346977 51.99790715 260.85167311 61.94580267 268.16757202 70.48101807 C197.87757202 70.48101807 127.58757202 70.48101807 55.16757202 70.48101807 C55.16757202 72.13101807 55.16757202 73.78101807 55.16757202 75.48101807 C50.21757202 75.48101807 45.26757202 75.48101807 40.16757202 75.48101807 C40.16757202 63.93101807 40.16757202 52.38101807 40.16757202 40.48101807 C98.24757202 40.48101807 156.32757202 40.48101807 216.16757202 40.48101807 C216.16757202 37.18101807 216.16757202 33.88101807 216.16757202 30.48101807 C141.91757202 30.81101807 67.66757202 31.14101807 -8.83242798 31.48101807 C-9.16242798 44.02101807 -9.49242798 56.56101807 -9.83242798 69.48101807 C-17.87330132 69.48101807 -23.21929161 66.74546574 -29.18008423 61.35992432 C-37.56220649 52.31976629 -40.234012 44.06334467 -40.10977173 31.83258057 C-39.35776354 22.74493227 -34.61617986 14.93485603 -28.01992798 8.79351807 C-19.4560825 1.88719107 -10.8177513 -0.11886934 0 0 Z " fill="#FECA5C" transform="translate(139.83242797851563,391.51898193359375)"/>
<path d="M0 0 C33.66 0 67.32 0 102 0 C102 102.96 102 205.92 102 312 C68.34 312 34.68 312 0 312 C2.72488953 309.27511047 5.37785252 307.2348003 8.5 305 C26.63686641 291.57645071 38.78608098 273.82430745 42.67578125 251.40625 C43.14275552 247.94051328 43.57342323 244.47094941 44 241 C45.63195312 240.38125 45.63195312 240.38125 47.296875 239.75 C62.78708763 233.72612665 78.46730576 225.70442955 86 210 C90.52714238 198.48736155 91.74010473 188.09130008 91.62890625 175.796875 C91.62973807 174.09970956 91.63220919 172.40254422 91.63621521 170.7053833 C91.63904708 167.17898808 91.62462547 163.65323722 91.59692383 160.12695312 C91.5627396 155.63973786 91.56891922 151.15366434 91.5875864 146.66639328 C91.59822138 143.17273668 91.5891618 139.67933963 91.57420158 136.18570709 C91.56907393 134.53214542 91.56943453 132.87855605 91.57574654 131.22499847 C91.61544953 114.59254683 87.88945643 101.15269947 76.25 88.75 C67.13914313 80.19766309 55.75476853 74.91825618 44 71 C43.85304688 69.47632812 43.85304688 69.47632812 43.703125 67.921875 C41.37241291 45.66601934 32.04365674 25.44656547 14.515625 11.04296875 C11.4121098 8.59944379 8.21031385 6.30108402 5 4 C3.35 2.68 1.7 1.36 0 0 Z " fill="#FECA5C" transform="translate(310,30)"/>
<path d="M0 0 C33.66 0 67.32 0 102 0 C97 4 97 4 94.5703125 5.9296875 C92.86897542 7.28314735 91.17272175 8.6430117 89.48046875 10.0078125 C88.03857066 11.16587238 86.58726674 12.31275439 85.11328125 13.4296875 C70.60275687 24.86222186 61.02168474 45.32982613 58.54296875 63.31640625 C58.29741653 65.8799714 58.10500836 68.42729529 58 71 C57.18917969 71.29132813 56.37835938 71.58265625 55.54296875 71.8828125 C38.07487439 78.34946443 23.75765596 87.06931706 15 104 C10.52390764 113.89530588 10.39364208 123.29647617 10.43359375 133.92578125 C10.42834363 135.64389885 10.42206214 137.36201358 10.41481018 139.0801239 C10.40446086 142.66480154 10.40888633 146.24908091 10.42358398 149.83374023 C10.44073782 154.38590018 10.41729013 158.93679367 10.38209438 163.48881245 C10.35993485 167.03319877 10.36160664 170.57729089 10.3698597 174.12172508 C10.3706696 175.79794895 10.36399386 177.47419659 10.34908867 179.15035439 C10.23309461 194.55467434 12.74840573 207.83180332 23 220 C23.51046875 220.62132812 24.0209375 221.24265625 24.546875 221.8828125 C33.38636791 231.64126259 45.91583659 236.58752539 58 241 C58.01417969 241.6084375 58.02835938 242.216875 58.04296875 242.84375 C59.32635726 266.43034959 71.871013 286.48783941 89 302 C91.5801967 303.96280524 94.18803238 305.79742362 96.90625 307.5625 C99 309 99 309 102 312 C68.34 312 34.68 312 0 312 C0 209.04 0 106.08 0 0 Z " fill="#FECA5C" transform="translate(160,30)"/>
<path d="M0 0 C98.01 0 196.02 0 297 0 C297 116.16 297 232.32 297 352 C200.64 352 104.28 352 5 352 C5 240.79 5 129.58 5 15 C3.35 15 1.7 15 0 15 C0 10.05 0 5.1 0 0 Z M16.24140871 11.18284357 C14.5287969 13.68974041 14.62396939 15.42523899 14.62247658 18.45202637 C14.61465334 19.59173637 14.60683009 20.73144638 14.59876978 21.90569305 C14.60546195 23.16335732 14.61215411 24.42102158 14.61904907 25.71679688 C14.61559423 27.06193675 14.61083084 28.4070738 14.60486734 29.7522049 C14.59230361 33.45662466 14.59855194 37.1608136 14.60782599 40.86523438 C14.61459427 44.85711255 14.60414633 48.84895012 14.59588623 52.84082031 C14.58252288 60.66407578 14.58543819 68.48724507 14.59412415 76.31050396 C14.60089008 82.66672665 14.60182216 89.02292513 14.5985527 95.37915039 C14.598093 96.28264552 14.59763331 97.18614064 14.59715968 98.11701441 C14.59620053 99.95225462 14.59522789 101.78749483 14.5942419 103.62273502 C14.58568039 120.84537169 14.59553407 138.06796051 14.611643 155.29058933 C14.62504687 170.07916686 14.622719 184.86767375 14.60888672 199.65625 C14.59284434 216.81584589 14.58650443 233.9753998 14.59572351 251.13500214 C14.59667919 252.96361795 14.5976223 254.79223378 14.5985527 256.62084961 C14.59901553 257.52064246 14.59947836 258.4204353 14.59995521 259.3474946 C14.60254913 265.69855154 14.59816546 272.04958194 14.59111404 278.40063477 C14.58271373 286.1369196 14.58494814 293.87311308 14.60095628 301.6093874 C14.60885887 305.55910078 14.61189696 309.50866166 14.60200882 313.45837402 C14.59310226 317.07054396 14.5979274 320.68241932 14.61394148 324.29456234 C14.6189068 326.22781078 14.60905669 328.1610795 14.59876978 330.09430695 C14.60659303 331.23401695 14.61441627 332.37372696 14.62247658 333.54797363 C14.62296363 334.53551888 14.62345069 335.52306412 14.62395251 336.54053497 C14.82152163 339.02017102 14.82152163 339.02017102 16.24140871 340.81715643 C18.48235403 342.32443545 19.822093 342.37589468 22.51498413 342.37752342 C23.4456904 342.38534666 24.37639668 342.39316991 25.33530617 342.40123022 C26.87161721 342.39119197 26.87161721 342.39119197 28.43896484 342.38095093 C29.52563635 342.3856309 30.61230785 342.39031087 31.7319088 342.39513266 C35.39170732 342.40714728 39.05113586 342.39760001 42.7109375 342.38818359 C45.32717102 342.39224641 47.94340282 342.39758665 50.55963135 342.40411377 C56.939085 342.41747265 63.31843292 342.41456382 69.69789076 342.40587585 C74.88134601 342.39910816 80.06477158 342.39817861 85.24822998 342.4014473 C86.35369016 342.40213684 86.35369016 342.40213684 87.48148286 342.40284032 C88.97850308 342.40379947 90.47552328 342.40477211 91.97254348 342.4057581 C106.01907694 342.4143183 120.06555173 342.40446799 134.11207557 342.388357 C146.17175165 342.37495323 158.23134111 342.37728115 170.29101562 342.39111328 C184.28635142 342.40715799 198.28163574 342.41349427 212.27697945 342.40427649 C213.7685763 342.40332082 215.26017315 342.4023777 216.75177002 342.4014473 C217.85268937 342.40075306 217.85268937 342.40075306 218.97584951 342.40004479 C224.15470892 342.39745157 229.33353577 342.40183304 234.51239014 342.40888596 C241.47924547 342.41816508 248.44593403 342.41158446 255.41277313 342.39420319 C257.97547889 342.39022349 260.53819838 342.39139753 263.10089874 342.39799118 C266.58779986 342.40613813 270.07416836 342.39596783 273.56103516 342.38095093 C275.0973462 342.39098918 275.0973462 342.39098918 276.66469383 342.40123022 C277.5954001 342.39340697 278.52610638 342.38558373 279.48501587 342.37752342 C280.29029535 342.37703637 281.09557484 342.37654931 281.92525673 342.37604749 C284.05596597 342.13313664 284.05596597 342.13313664 285.75859129 340.81715643 C287.4712031 338.31025959 287.37603061 336.57476101 287.37752342 333.54797363 C287.38534666 332.40826363 287.39316991 331.26855362 287.40123022 330.09430695 C287.39453805 328.83664268 287.38784589 327.57897842 287.38095093 326.28320312 C287.38440577 324.93806325 287.38916916 323.5929262 287.39513266 322.2477951 C287.40769639 318.54337534 287.40144806 314.8391864 287.39217401 311.13476562 C287.38540573 307.14288745 287.39585367 303.15104988 287.40411377 299.15917969 C287.41747712 291.33592422 287.41456181 283.51275493 287.40587585 275.68949604 C287.39910992 269.33327335 287.39817784 262.97707487 287.4014473 256.62084961 C287.401907 255.71735448 287.40236669 254.81385936 287.40284032 253.88298559 C287.40379947 252.04774538 287.40477211 250.21250517 287.4057581 248.37726498 C287.41431961 231.15462831 287.40446593 213.93203949 287.388357 196.70941067 C287.37495313 181.92083314 287.377281 167.13232625 287.39111328 152.34375 C287.40715566 135.18415411 287.41349557 118.0246002 287.40427649 100.86499786 C287.40332081 99.03638205 287.4023777 97.20776622 287.4014473 95.37915039 C287.40075306 94.02946112 287.40075306 94.02946112 287.40004479 92.6525054 C287.39745087 86.30144846 287.40183454 79.95041806 287.40888596 73.59936523 C287.41728627 65.8630804 287.41505186 58.12688692 287.39904372 50.3906126 C287.39114113 46.44089922 287.38810304 42.49133834 287.39799118 38.54162598 C287.40689774 34.92945604 287.4020726 31.31758068 287.38605852 27.70543766 C287.3810932 25.77218922 287.39094331 23.8389205 287.40123022 21.90569305 C287.39340697 20.76598305 287.38558373 19.62627304 287.37752342 18.45202637 C287.37703637 17.46448112 287.37654931 16.47693588 287.37604749 15.45946503 C287.17847837 12.97982898 287.17847837 12.97982898 285.75859129 11.18284357 C283.51764597 9.67556455 282.177907 9.62410532 279.48501587 9.62247658 C278.08895646 9.61074171 278.08895646 9.61074171 276.66469383 9.59876978 C275.12838279 9.60880803 275.12838279 9.60880803 273.56103516 9.61904907 C272.47436365 9.6143691 271.38769215 9.60968913 270.2680912 9.60486734 C266.60829268 9.59285272 262.94886414 9.60239999 259.2890625 9.61181641 C256.67282898 9.60775359 254.05659718 9.60241335 251.44036865 9.59588623 C245.060915 9.58252735 238.68156708 9.58543618 232.30210924 9.59412415 C227.11865399 9.60089184 221.93522842 9.60182139 216.75177002 9.5985527 C216.01479657 9.598093 215.27782312 9.59763331 214.51851714 9.59715968 C213.02149692 9.59620053 211.52447672 9.59522789 210.02745652 9.5942419 C195.98092306 9.5856817 181.93444827 9.59553201 167.88792443 9.611643 C155.82824835 9.62504677 143.76865889 9.62271885 131.70898438 9.60888672 C117.71364858 9.59284201 103.71836426 9.58650573 89.72302055 9.59572351 C88.2314237 9.59667918 86.73982685 9.5976223 85.24822998 9.5985527 C84.14731063 9.59924694 84.14731063 9.59924694 83.02415049 9.59995521 C77.84529108 9.60254843 72.66646423 9.59816696 67.48760986 9.59111404 C60.52075453 9.58183492 53.55406597 9.58841554 46.58722687 9.60579681 C44.02452111 9.60977651 41.46180162 9.60860247 38.89910126 9.60200882 C35.41220014 9.59386187 31.92583164 9.60403217 28.43896484 9.61904907 C27.41475748 9.61235691 26.39055012 9.60566474 25.33530617 9.59876978 C24.4045999 9.60659303 23.47389362 9.61441627 22.51498413 9.62247658 C21.70970465 9.62296363 20.90442516 9.62345069 20.07474327 9.62395251 C17.94403403 9.86686336 17.94403403 9.86686336 16.24140871 11.18284357 Z " fill="#399248" transform="translate(135,10)"/>
<path d="M0 0 C3.49313413 1.23390029 5.27442032 2.70624614 7.8984375 5.31176758 C8.77693359 6.18381836 9.65542969 7.05586914 10.56054688 7.9543457 C11.90922852 9.33203125 11.90922852 9.33203125 13.28515625 10.73754883 C14.20361328 11.63666992 15.12207031 12.53579102 16.06835938 13.4621582 C16.94041016 14.3406543 17.81246094 15.21915039 18.7109375 16.12426758 C19.50540283 16.92437256 20.29986816 17.72447754 21.1184082 18.54882812 C23.28323531 21.46899319 23.78926559 23.44222623 23.97265625 27.05004883 C22.5390625 29.31567383 22.5390625 29.31567383 20.53515625 31.30004883 C17.74435428 33.73584132 17.74435428 33.73584132 16.97265625 37.05004883 C17.86726563 37.34137695 18.761875 37.63270508 19.68359375 37.93286133 C40.41776122 44.96214198 56.03319942 57.96530968 66.97265625 77.05004883 C67.49730469 77.96270508 68.02195312 78.87536133 68.5625 79.81567383 C74.44747119 90.77699422 78.70631775 103.53213921 78.97265625 116.05004883 C79.02292969 117.36102539 79.07320312 118.67200195 79.125 120.02270508 C79.86239267 146.92421131 71.8219925 170.61540534 53.97265625 191.05004883 C43.61793292 201.9753728 30.31134166 209.63814563 15.97265625 214.05004883 C16.71322266 214.70360352 16.71322266 214.70360352 17.46875 215.37036133 C20.38836092 218.08436584 22.6459064 220.35199232 24.34765625 223.98754883 C23.72589002 229.06530635 20.4977577 231.53045535 16.97265625 235.05004883 C15.84573018 236.24484969 14.72089568 237.44162523 13.59765625 238.63989258 C12.37002388 239.92391333 11.14084268 241.20645498 9.91015625 242.48754883 C9.32097412 243.11532227 8.73179199 243.7430957 8.12475586 244.38989258 C5.45407529 247.10864316 3.46147796 248.8551389 -0.11328125 250.28051758 C-4.20820157 249.95665659 -5.99949007 247.85166811 -8.58984375 244.92504883 C-9.04552734 244.4377832 -9.50121094 243.95051758 -9.97070312 243.44848633 C-11.33276594 241.991486 -12.68013797 240.5207975 -14.02734375 239.05004883 C-16.32498424 236.70403696 -18.61726722 234.41100973 -21.08203125 232.24145508 C-25.94131551 227.8931256 -25.94131551 227.8931256 -26.33984375 223.98754883 C-24.64986406 220.20521332 -22.34694371 217.53314482 -19.02734375 215.05004883 C-18.36734375 215.05004883 -17.70734375 215.05004883 -17.02734375 215.05004883 C-17.02734375 214.39004883 -17.02734375 213.73004883 -17.02734375 213.05004883 C-18.18234375 212.88504883 -19.33734375 212.72004883 -20.52734375 212.55004883 C-39.8931561 208.13488721 -55.68769054 194.02116098 -66.1796875 177.70239258 C-79.95553123 154.99746755 -84.9953803 128.24079533 -79.02734375 102.23754883 C-75.43894613 88.07906594 -69.34178642 75.34136174 -60.02734375 64.05004883 C-59.36347656 63.2121582 -58.69960937 62.37426758 -58.015625 61.51098633 C-47.83607371 49.35573654 -32.99019898 39.1896484 -17.02734375 37.05004883 C-17.02734375 36.39004883 -17.02734375 35.73004883 -17.02734375 35.05004883 C-17.58421875 34.84379883 -18.14109375 34.63754883 -18.71484375 34.42504883 C-22.00513945 32.46865679 -23.87066436 30.19263879 -26.02734375 27.05004883 C-25.83535695 20.52249768 -20.213215 16.52959883 -15.88208008 12.21850586 C-14.34243811 10.67764524 -12.83447957 9.10980138 -11.32617188 7.53833008 C-10.34945285 6.55347215 -9.37099274 5.57033724 -8.390625 4.58911133 C-7.06478394 3.24647217 -7.06478394 3.24647217 -5.7121582 1.87670898 C-3.02734375 0.05004883 -3.02734375 0.05004883 0 0 Z M-7.02734375 45.05004883 C-9.3344363 45.47626974 -11.6478228 45.86910046 -13.96484375 46.23754883 C-30.72864492 49.35371152 -45.05919168 59.72423994 -55.19140625 73.27661133 C-68.90324732 93.99024359 -73.77940308 116.72817048 -70.40234375 141.42504883 C-66.07223893 162.43968341 -54.51464864 181.54276203 -37.02734375 194.05004883 C-36.39441406 194.52055664 -35.76148438 194.99106445 -35.109375 195.47583008 C-21.97819357 204.51926633 -5.18113761 207.49782338 10.27856445 204.66137695 C28.35166236 200.91282299 43.31827628 190.33780448 53.90625 175.36254883 C59.33261452 166.66395316 64.55321207 157.07346045 66.97265625 147.05004883 C67.17503906 146.24696289 67.37742187 145.44387695 67.5859375 144.61645508 C72.43671323 121.35253068 68.57451492 97.12261145 55.72509766 77.10668945 C44.7733873 61.17242561 29.15411065 49.0916756 9.85546875 45.46411133 C7.76459373 45.1181392 5.67090397 44.78855043 3.57421875 44.47973633 C-1.82511475 43.42378105 -1.82511475 43.42378105 -7.02734375 45.05004883 Z " fill="#4F271A" transform="translate(287.02734375,60.949951171875)"/>
<path d="M0 0 C8.76810971 7.39685646 15.67644035 16.58797028 17.53515625 28.12890625 C18.6283771 42.57000106 15.25488478 54.77841151 6.7890625 66.55859375 C-0.60110168 74.72750641 -12.93784267 80.45497708 -23.82421875 81.4296875 C-38.4591923 81.48026921 -49.47560443 77.86564414 -60.33984375 67.75390625 C-63.87222821 63.98490273 -66.22545143 59.75588598 -68.46484375 55.12890625 C-68.77421875 54.50757813 -69.08359375 53.88625 -69.40234375 53.24609375 C-74.36819505 42.5981626 -73.49774406 30.09953582 -69.78515625 19.234375 C-64.93930514 7.83658912 -56.07078594 -0.79136667 -44.859375 -5.90625 C-30.18627625 -11.81857527 -12.64239131 -9.59699752 0 0 Z " fill="#FDB10F" transform="translate(313.46484375,149.87109375)"/>
<path d="M0 0 C1.89101182 -0.00512655 1.89101182 -0.00512655 3.82022589 -0.01035666 C7.27992559 -0.01920798 10.73912037 -0.00343108 14.19875586 0.01675558 C17.94430047 0.03416025 21.68982057 0.02817476 25.43539429 0.02514648 C31.91172754 0.02305728 38.38789859 0.03552098 44.86419106 0.05809784 C54.22759363 0.09071799 63.59091842 0.10103506 72.95437165 0.10604981 C88.14888064 0.11478681 103.34330333 0.14135895 118.5377655 0.17926025 C133.29069082 0.21602173 148.04359264 0.2443132 162.79655457 0.2612915 C164.16246243 0.26286784 164.16246243 0.26286784 165.55596439 0.26447603 C170.1245718 0.26969649 174.69317937 0.27475125 179.26178706 0.27972364 C217.11450217 0.321136 254.96711691 0.39183984 292.81974792 0.48101807 C292.81974792 3.78101807 292.81974792 7.08101807 292.81974792 10.48101807 C290.48485558 10.4846006 290.48485558 10.4846006 288.10279369 10.4882555 C251.13450568 10.545642 214.16627597 10.6183915 177.19805638 10.71000435 C172.64576569 10.72127222 168.09347468 10.73241072 163.54118347 10.74346924 C162.634922 10.74567292 161.72866052 10.74787661 160.79493657 10.75014707 C146.12982818 10.78549867 131.46471983 10.81037487 116.79958465 10.83136509 C101.7466023 10.85314416 86.69367513 10.8862146 71.64073974 10.92971963 C62.35575388 10.95620004 53.07083677 10.97392199 43.78581504 10.98036411 C37.41471462 10.98562904 31.04370062 11.00188308 24.67264654 11.02668373 C20.99943338 11.04066091 17.32637479 11.04988375 13.65313339 11.04602623 C9.66311326 11.04196328 5.67352906 11.06108771 1.68356323 11.08229065 C0.53275621 11.07744307 -0.61805082 11.0725955 -1.80373079 11.06760103 C-14.95367246 11.1826517 -25.67330303 14.58792517 -35.47322083 23.58648682 C-45.14646974 33.84049364 -48.67780709 45.13444983 -48.42634583 59.02398682 C-47.63011951 70.20907079 -42.55862141 80.66150204 -34.43025208 88.35601807 C-26.7936252 94.75798072 -18.70692819 97.89520598 -9.18025208 100.48101807 C-9.18025208 103.78101807 -9.18025208 107.08101807 -9.18025208 110.48101807 C-23.81054178 109.62041279 -35.90555148 102.16859013 -45.93025208 91.85601807 C-56.81893523 79.16884505 -60.24837727 64.95775149 -59.37117004 48.56744385 C-58.13503224 35.05844937 -50.60505391 22.86181722 -40.90681458 13.73492432 C-28.86667011 3.78196822 -15.44721204 -0.15613017 0 0 Z " fill="#2B6D37" transform="translate(139.1802520751953,371.51898193359375)"/>
<path d="M0 0 C4.95 0 9.9 0 15 0 C15 1.65 15 3.3 15 5 C93.21 5 171.42 5 252 5 C252 8.3 252 11.6 252 15 C168.84 15 85.68 15 0 15 C0 10.05 0 5.1 0 0 Z " fill="#2B6D37" transform="translate(180,467)"/>
<path d="M0 0 C8.76810971 7.39685646 15.67644035 16.58797028 17.53515625 28.12890625 C18.6283771 42.57000106 15.25488478 54.77841151 6.7890625 66.55859375 C-0.60110168 74.72750641 -12.93784267 80.45497708 -23.82421875 81.4296875 C-38.4591923 81.48026921 -49.47560443 77.86564414 -60.33984375 67.75390625 C-63.87222821 63.98490273 -66.22545143 59.75588598 -68.46484375 55.12890625 C-68.77421875 54.50757813 -69.08359375 53.88625 -69.40234375 53.24609375 C-74.36819505 42.5981626 -73.49774406 30.09953582 -69.78515625 19.234375 C-64.93930514 7.83658912 -56.07078594 -0.79136667 -44.859375 -5.90625 C-30.18627625 -11.81857527 -12.64239131 -9.59699752 0 0 Z M-54.15234375 12.94140625 C-61.32276802 21.83273234 -63.61968231 30.79437965 -62.46484375 42.12890625 C-60.61956949 51.93478516 -54.89884796 59.8678699 -46.87109375 65.62109375 C-37.98784948 71.18754227 -29.31731889 72.6065882 -18.953125 70.65625 C-9.3535519 67.85846866 -1.34387489 61.64368932 3.75390625 53.08203125 C8.07633821 44.86941052 9.07380552 35.40659527 6.8515625 26.33984375 C2.87859292 15.69030703 -3.89701715 8.86355275 -13.65234375 3.31640625 C-28.06694055 -2.76975684 -43.77054243 1.79058261 -54.15234375 12.94140625 Z " fill="#50271A" transform="translate(313.46484375,149.87109375)"/>
<path d="M0 0 C9.9 0 19.8 0 30 0 C30 20.79 30 41.58 30 63 C23 57 23 57 19.9375 53.5625 C17.2915105 50.6822284 17.2915105 50.6822284 14.1484375 51.0234375 C10.19687314 52.24910883 8.48468743 54.04459369 5.6875 57.0625 C4.13466966 58.71745969 2.57477682 60.36590955 1 62 C0.67 62 0.34 62 0 62 C0 41.54 0 21.08 0 0 Z " fill="#E66A4C" transform="translate(140,432)"/>
<path d="M0 0 C1.5859375 1.609375 1.5859375 1.609375 3.375 3.75 C5.81617866 6.6243732 8.27649992 9.38543992 11 12 C9.46356148 15.68069887 7.21849055 17.98775204 4.375 20.75 C3.55773437 21.54921875 2.74046875 22.3484375 1.8984375 23.171875 C1.27195312 23.77515625 0.64546875 24.3784375 0 25 C-3.42280517 23.53417985 -5.56480483 21.61937745 -8.125 18.9375 C-10.77905 16.08428067 -10.77905 16.08428067 -14 14 C-12.41438362 10.14406926 -9.93490046 7.66783709 -7 4.75 C-6.113125 3.85796875 -5.22625 2.9659375 -4.3125 2.046875 C-2 0 -2 0 0 0 Z " fill="#FAC75B" transform="translate(287,273)"/>
<path d="M0 0 C3.68069887 1.53643852 5.98775204 3.78150945 8.75 6.625 C9.54921875 7.44226563 10.3484375 8.25953125 11.171875 9.1015625 C11.77515625 9.72804688 12.3784375 10.35453125 13 11 C11.42491141 14.66379303 9.15806427 17.29851305 6.5 20.25 C5.30890625 21.58804688 5.30890625 21.58804688 4.09375 22.953125 C2 25 2 25 0 25 C-1.5859375 23.390625 -1.5859375 23.390625 -3.375 21.25 C-5.81617866 18.3756268 -8.27649992 15.61456008 -11 13 C-9.46356148 9.31930113 -7.21849055 7.01224796 -4.375 4.25 C-3.55773437 3.45078125 -2.74046875 2.6515625 -1.8984375 1.828125 C-0.95871094 0.92320313 -0.95871094 0.92320313 0 0 Z " fill="#FDC95C" transform="translate(285,74)"/>
</svg>
